<?xml version="1.0" encoding="UTF-8"?>
<svg width="1280px" height="266px" viewBox="0 0 1280 266" xmlns="http://www.w3.org/2000/svg" xmlns:xlink="http://www.w3.org/1999/xlink" version="1.1">
 <!-- Generated by Pixelmator Pro 2.0.8 -->
 <path id="Path" d="M1094.683 205.972 L1245.872 118.683 1253.064 131.139 1101.875 218.428 Z" fill="#45986f" fill-opacity="1" stroke="#191b1d" stroke-width="1" stroke-opacity="1" stroke-linejoin="round" stroke-linecap="round"/>
 <path id="Path-1" d="M445.5 141 C445.5 169.457 423.1 192.5 395.5 192.5 367.9 192.5 345.5 169.457 345.5 141 345.5 112.543 367.9 89.5 395.5 89.5 423.1 89.5 445.5 112.543 445.5 141 Z" fill="#f8c93b" fill-opacity="1" stroke="#191b1d" stroke-width="1" stroke-opacity="1" stroke-linejoin="round" stroke-linecap="round"/>
 <path id="Path-2" d="M457.405 168.819 L361.697 73.111 366.807 67.717 462.515 163.425 Z" fill="#1b019a" fill-opacity="1" stroke="#191b1d" stroke-width="1" stroke-opacity="1" stroke-linejoin="round" stroke-linecap="round"/>
 <path id="Path-3" d="M949 145 C949 174.547 925.047 198.5 895.5 198.5 865.953 198.5 842 174.547 842 145 842 115.453 865.953 91.5 895.5 91.5 925.047 91.5 949 115.453 949 145 Z" fill="#ef4332" fill-opacity="1" stroke="#191b1d" stroke-width="1" stroke-opacity="1" stroke-linejoin="round" stroke-linecap="round"/>
 <path id="Path-4" d="M895.5 38 C865.953 38 842 61.953 842 91.5 L949 91.5 C949 61.953 925.047 38 895.5 38 Z" fill="#f8c93b" fill-opacity="1" stroke="#191b1d" stroke-width="1" stroke-opacity="1" stroke-linejoin="round" stroke-linecap="round"/>
 <path id="Path-5" d="M949 145 C949 115.453 925.047 91.5 895.5 91.5 L895.5 145 Z" fill="#fbf9f3" fill-opacity="1" stroke="#191b1d" stroke-width="1" stroke-opacity="1" stroke-linejoin="round" stroke-linecap="round"/>
 <path id="Path-6" d="M949 145 C949 174.547 925.047 198.5 895.5 198.5 L895.5 145 Z" fill="#1b019a" fill-opacity="1" stroke="#191b1d" stroke-width="1" stroke-opacity="1" stroke-linejoin="round" stroke-linecap="round"/>
 <path id="Path-7" d="M672.998 229.265 L656.323 156.573 711.058 203.232 Z" fill="#f8c93b" fill-opacity="1" stroke="#191b1d" stroke-width="1.145" stroke-opacity="1" stroke-linejoin="round" stroke-linecap="round"/>
 <path id="Path-8" d="M672.998 229.265 L656.323 156.573 619.07 219.037 Z" fill="#fbf9f3" fill-opacity="1" stroke="#191b1d" stroke-width="1.145" stroke-opacity="1" stroke-linejoin="round" stroke-linecap="round"/>
</svg>
