<svg width="24" height="11" fill="none" xmlns="http://www.w3.org/2000/svg"><path d="M0 2.12C0 .95.94 0 2.098 0h19.804C23.061 0 24 .95 24 2.12v6.613c0 1.171-.94 2.12-2.098 2.12H2.098A2.109 2.109 0 010 8.733V2.12z" fill="#528B85"/><path d="M6.148 5.518c.087.04.189.028.262-.033l1.16-.95a.24.24 0 00.087-.186V3.66c0-.778-.56-1.445-1.333-1.585l-1.485-.268a1.63 1.63 0 00-1.334.348c-.188.159-.337.358-.437.582-.73.174-1.244.82-1.245 1.564v2.868c0 .777.56 1.443 1.332 1.582l1.49.27c.061.01.123.015.185.014h.109c.394 0 .753-.124 1.037-.36.188-.155.338-.35.439-.572.394-.095.743-.345.982-.703a1.59 1.59 0 00.26-.887v-.946a.273.273 0 00-.158-.247.277.277 0 00-.293.036L6.1 6.262a.28.28 0 00-.093.209v.954c0 .054-.004.108-.013.162h-.03a.59.59 0 01-.125-.005l-1.485-.268a1.066 1.066 0 01-.88-1.046V3.406c0-.056.004-.11.013-.165.05.002.102.007.152.016l1.49.256c.509.092.878.531.878 1.044v.74c0 .095.055.18.141.22zm-.92-2.544l-1.49-.27H3.729c.247-.29.633-.427 1.01-.358l1.486.268c.51.092.88.532.88 1.046v.546l-.546.446v-.096c0-.777-.56-1.442-1.33-1.582zm-.973 4.88l1.485.268h.006a.887.887 0 01-.123.131 1.074 1.074 0 01-.877.229l-1.49-.269a1.072 1.072 0 01-.88-1.059V4.301a1.057 1.057 0 01.545-.924v2.891c0 .779.562 1.446 1.334 1.585zm2.305-.405v-.854l.546-.446v.374a1.055 1.055 0 01-.547.926h.001zM9.683 5.838c0 .364.102.65.305.856.204.206.477.31.82.31.341 0 .61-.104.805-.31.2-.206.3-.492.3-.856V3.125h.87v2.713c0 .4-.08.749-.24 1.047-.16.294-.39.52-.69.678-.294.159-.643.238-1.046.238-.407 0-.762-.08-1.066-.238a1.64 1.64 0 01-.689-.678 2.18 2.18 0 01-.24-1.047V3.125h.87v2.713zM16.67 4.31a3.25 3.25 0 00-.722-.336 2.113 2.113 0 00-.644-.118c-.208 0-.373.04-.494.118a.373.373 0 00-.182.33c0 .127.041.234.124.322.086.084.192.154.318.211.13.053.306.112.527.178.307.092.559.184.754.276.199.093.368.229.507.409.138.18.208.417.208.71 0 .282-.076.528-.228.739a1.393 1.393 0 01-.617.474 2.29 2.29 0 01-.897.164 2.84 2.84 0 01-1.04-.197 2.999 2.999 0 01-.884-.54l.364-.751c.23.215.487.384.773.507.286.123.553.184.8.184.242 0 .433-.046.572-.138a.45.45 0 00.208-.388.428.428 0 00-.13-.323.883.883 0 00-.319-.21 5.855 5.855 0 00-.533-.179 6.254 6.254 0 01-.754-.27 1.324 1.324 0 01-.5-.395c-.139-.18-.208-.415-.208-.704 0-.268.069-.501.208-.699.143-.201.342-.357.598-.467.26-.11.559-.165.897-.165.294 0 .585.044.87.132.29.088.549.206.774.356l-.35.77zM19.782 3.125c.455 0 .862.098 1.222.296.36.193.641.465.845.817.204.35.305.748.305 1.192 0 .443-.104.84-.312 1.192-.203.347-.487.619-.851.816a2.56 2.56 0 01-1.241.297h-1.86v-4.61h1.892zm.02 3.833c.277 0 .526-.064.747-.191.225-.132.4-.312.527-.54.125-.233.188-.497.188-.79 0-.295-.065-.558-.195-.791-.13-.237-.31-.42-.54-.547a1.479 1.479 0 00-.76-.197h-1.007v3.056h1.04z" fill="#fff"/></svg>