<?xml version="1.0" encoding="UTF-8"?>
<svg viewBox="0 0 36 36" xmlns="http://www.w3.org/2000/svg" xmlns:xlink="http://www.w3.org/1999/xlink" version="1.1">
 <!-- Generated by Pixelmator Pro 2.0.8 -->
 <path id="Path" d="M28.923 32.875 L6.077 32.875 6.077 35 28.923 35 Z" fill="#191b1d" fill-opacity="1" stroke="none"/>
 <path id="Path-1" d="M31 30.75 L28.923 30.75 28.923 32.875 31 32.875 Z" fill="#191b1d" fill-opacity="1" stroke="none"/>
 <path id="Path-2" d="M6.077 30.75 L4 30.75 4 32.875 6.077 32.875 Z" fill="#191b1d" fill-opacity="1" stroke="none"/>
 <path id="Path-3" d="M31 3.125 L28.923 3.125 28.923 5.25 31 5.25 Z" fill="#191b1d" fill-opacity="1" stroke="none"/>
 <path id="Path-4" d="M6.077 3.125 L4 3.125 4 5.25 6.077 5.25 Z" fill="#191b1d" fill-opacity="1" stroke="none"/>
 <path id="Path-5" d="M28.923 1 L6.077 1 6.077 3.125 28.923 3.125 Z" fill="#191b1d" fill-opacity="1" stroke="none"/>
 <path id="Path-6" d="M10.231 24.375 L8.154 24.375 8.154 26.5 10.231 26.5 Z" fill="#191b1d" fill-opacity="1" stroke="none"/>
 <path id="Path-7" d="M12.308 22.25 L10.231 22.25 10.231 24.375 12.308 24.375 Z" fill="#191b1d" fill-opacity="1" stroke="none"/>
 <path id="Path-8" d="M14.384 20.125 L12.308 20.125 12.308 22.25 14.384 22.25 Z" fill="#191b1d" fill-opacity="1" stroke="none"/>
 <path id="Path-9" d="M26.846 24.375 L24.769 24.375 24.769 26.5 26.846 26.5 Z" fill="#191b1d" fill-opacity="1" stroke="none"/>
 <path id="Path-10" d="M10.231 9.5 L8.154 9.5 8.154 11.625 10.231 11.625 Z" fill="#191b1d" fill-opacity="1" stroke="none"/>
 <path id="Path-11" d="M26.846 9.5 L24.769 9.5 24.769 11.625 26.846 11.625 Z" fill="#191b1d" fill-opacity="1" stroke="none"/>
 <path id="Path-12" d="M24.769 22.25 L22.692 22.25 22.692 24.375 24.769 24.375 Z" fill="#191b1d" fill-opacity="1" stroke="none"/>
 <path id="Path-13" d="M22.692 20.125 L20.615 20.125 20.615 22.25 22.692 22.25 Z" fill="#191b1d" fill-opacity="1" stroke="none"/>
 <path id="Path-14" d="M12.308 11.625 L10.231 11.625 10.231 13.75 12.308 13.75 Z" fill="#191b1d" fill-opacity="1" stroke="none"/>
 <path id="Path-15" d="M24.769 11.625 L22.692 11.625 22.692 13.75 24.769 13.75 Z" fill="#191b1d" fill-opacity="1" stroke="none"/>
 <path id="Path-16" d="M14.384 13.75 L12.308 13.75 12.308 15.875 14.384 15.875 Z" fill="#191b1d" fill-opacity="1" stroke="none"/>
 <path id="Path-17" d="M16.462 15.875 L14.385 15.875 14.385 20.125 16.462 20.125 Z" fill="#191b1d" fill-opacity="1" stroke="none"/>
 <path id="Path-18" d="M22.692 13.75 L20.615 13.75 20.615 15.875 22.692 15.875 Z" fill="#191b1d" fill-opacity="1" stroke="none"/>
 <path id="Path-19" d="M20.615 15.875 L18.538 15.875 18.538 20.125 20.615 20.125 Z" fill="#191b1d" fill-opacity="1" stroke="none"/>
 <path id="Path-20" d="M6.077 5.25 L6.077 9.5 8.154 9.5 8.154 7.375 12.308 7.375 12.308 9.5 14.385 9.5 14.385 11.625 16.462 11.625 16.462 13.75 18.538 13.75 18.538 11.625 20.615 11.625 20.615 9.5 22.692 9.5 22.692 7.375 26.846 7.375 26.846 9.5 28.923 9.5 28.923 5.25 Z" fill="#191b1d" fill-opacity="1" stroke="none"/>
 <path id="Path-21" d="M18.539 22.25 L16.462 22.25 16.462 24.375 18.539 24.375 Z" fill="#191b1d" fill-opacity="1" stroke="none"/>
 <path id="Path-22" d="M26.846 26.5 L26.846 28.625 22.692 28.625 22.692 26.5 12.308 26.5 12.308 28.625 8.154 28.625 8.154 26.5 6.077 26.5 6.077 30.75 28.923 30.75 28.923 26.5 Z" fill="#191b1d" fill-opacity="1" stroke="none"/>
</svg>
