<svg viewBox="0 0 101 40" fill="none" xmlns="http://www.w3.org/2000/svg">
<path d="M20.3977 25.1187V39.2303H0V0H9.41629V14.1629C5.02887 14.5478 1.56511 18.2425 1.56511 22.7582C1.56511 27.5305 5.43938 31.3791 10.186 31.3791C14.1373 31.3791 17.4727 28.7364 18.499 25.093H20.3977V25.1187Z" fill="#191B1D"/>
<path d="M32.2774 31.3534V39.2303H22.8611V0L32.2774 0V14.1629C27.89 14.5478 24.4262 18.2425 24.4262 22.7582C24.4262 27.2482 27.89 30.9429 32.2774 31.3534Z" fill="#191B1D"/>
<path d="M55.1382 0V14.1629C54.8816 14.1373 54.625 14.1373 54.3428 14.1373C49.5705 14.1373 45.7219 18.0115 45.7219 22.7582C45.7219 27.2482 49.16 30.9429 53.5731 31.3534V31.3791V39.2303H36.3056V31.3791V31.3534C40.693 30.9686 44.1568 27.2739 44.1568 22.7582C44.1568 17.9859 40.2825 14.1373 35.5359 14.1373C35.2793 14.1373 34.9971 14.1629 34.7405 14.1629V0L55.1382 0Z" fill="#191B1D"/>
<path d="M59.2171 23.5279C59.602 27.6588 62.8862 30.9686 67.017 31.3278V39.2046H57.6007V0H67.017V14.1629C62.8862 14.5478 59.5763 17.8319 59.2171 21.9628V23.5279ZM76.4076 21.9628C76.0228 17.8319 72.7386 14.5221 68.6078 14.1629V0H77.9984V39.2303H68.5821V31.3534C72.713 30.9686 76.0228 27.6844 76.382 23.5536" fill="#191B1D"/>
<path d="M99.1666 23.5025C99.1666 18.7302 95.2923 14.8816 90.5457 14.8816C85.7734 14.8816 81.9248 18.7558 81.9248 23.5025C81.9248 28.2748 85.799 32.1234 90.5457 32.1234C95.318 32.149 99.1666 28.2748 99.1666 23.5025ZM100.732 29.7885C100.732 35.4332 96.1647 40.0002 90.52 40.0002C84.8754 40.0002 80.3083 35.4332 80.3083 29.7885V10.1862C80.7445 4.9008 85.1833 0.769943 90.5457 0.769943C95.9081 0.769943 100.347 4.92645 100.757 10.1862V29.7885H100.732Z" fill="#191B1D"/>
</svg>
