<?xml version="1.0" encoding="UTF-8"?>
<svg viewBox="0 0 345 135" xmlns="http://www.w3.org/2000/svg" xmlns:xlink="http://www.w3.org/1999/xlink" version="1.1">
 <!-- Generated by Pixelmator Pro 2.0.8 -->
 <path id="Path" d="M70.568 134.864 L0 134.864 0 0 32.932 0 32.932 48.614 C17.909 49.932 6.273 62.464 6.273 77.926 6.273 94.267 18.625 106.637 34.878 106.637 48.407 106.637 59.213 98.726 62.727 86.25 L70.568 86.25 Z" fill="#191b1d" fill-opacity="1" stroke="none"/>
 <path id="Path-1" d="M109.773 106.637 L109.773 134.865 76.841 134.865 76.841 0 109.773 0 109.773 48.495 C94.75 49.813 82.2 62.464 82.2 77.926 82.2 93.301 94.75 105.232 109.773 106.637 Z" fill="#191b1d" fill-opacity="1" stroke="none"/>
 <path id="Path-2" d="M188.182 0 L188.182 48.614 C188.182 48.614 187.268 48.614 186.302 48.614 169.961 48.614 156.783 61.674 156.783 77.926 156.783 93.301 168.366 105.232 183.477 106.637 L183.477 134.865 123.886 134.865 123.886 106.637 C138.909 105.319 150.545 93.389 150.545 77.926 150.545 61.586 137.787 48.614 121.534 48.614 120.655 48.614 120.06 48.614 119.182 48.614 L119.182 0 Z" fill="#191b1d" fill-opacity="1" stroke="none"/>
 <path id="Path-3" d="M309.672 134.864 C329.151 134.864 345 119.237 345 99.923 L345 66.071 345 32.22 C343.583 14.223 328.266 0 309.76 0 291.255 0 275.937 14.135 274.432 32.22 L274.432 99.923 C274.432 119.237 290.192 134.864 309.672 134.864 Z M309.716 106.637 C325.739 106.637 338.727 93.648 338.727 77.626 338.727 61.603 325.739 48.614 309.716 48.614 293.693 48.614 280.705 61.603 280.705 77.626 280.705 93.648 293.693 106.637 309.716 106.637 Z" fill="#191b1d" fill-opacity="1" stroke="none"/>
 <path id="Path-4" d="M228.955 106.637 L228.955 134.865 196.023 134.865 196.023 0 228.955 0 228.955 48.495 C213.932 49.813 201.382 62.464 201.382 77.926 201.382 93.301 213.932 105.232 228.955 106.637 Z" fill="#191b1d" fill-opacity="1" stroke="none"/>
 <path id="Path-5" d="M235.227 106.637 L235.227 134.865 268.159 134.865 268.159 0 235.227 0 235.227 48.495 C250.25 49.813 262.8 62.464 262.8 77.926 262.8 93.301 250.25 105.232 235.227 106.637 Z" fill="#191b1d" fill-opacity="1" stroke="none"/>
</svg>
