<svg viewBox="0 0 36 24" xmlns="http://www.w3.org/2000/svg">
<path d="M6.0077 18V15H3.00385V12V9H6.0077V6H3.00385V3H0V6V9V12V15V18V21H3.00385V18H6.0077Z"/>
<path d="M15.0193 15V18H18.0231H21.027V15H18.0231H15.0193Z"/>
<path d="M21.027 9V6H18.0231H15.0193V9H18.0231H21.027Z"/>
<path d="M21.0269 12V15H24.0307V12V9H21.0269V12Z"/>
<path d="M15.0192 9H12.0154V12V15H15.0192V12V9Z"/>
<path d="M30.0386 18H27.0347V21H24.0309H21.027H18.0232H15.0193H12.0155H9.01161V18H6.00776V21H3.00391V24H6.00776H9.01161H12.0155H15.0193H18.0232H21.027H24.0309H27.0347H30.0386H32.9962V21H30.0386V18Z"/>
<path d="M32.9962 3V6H30.0386V9H32.9962V12V15H30.0386V18H32.9962V21H36.0001V18V15V12V9V6V3H32.9962Z"/>
<path d="M6.00776 6H9.01161V3H12.0155H15.0193H18.0232H21.027H24.0309H27.0347V6H30.0386V3H32.9962V0H30.0386H27.0347H24.0309H21.027H18.0232H15.0193H12.0155H9.01161H6.00776H3.00391V3H6.00776V6Z"/>
</svg>
