<?xml version="1.0" encoding="UTF-8"?>
<svg viewBox="0 0 36 36" xmlns="http://www.w3.org/2000/svg" xmlns:xlink="http://www.w3.org/1999/xlink" version="1.1">
 <!-- Generated by Pixelmator Pro 2.0.8 -->
 <path id="Path" d="M6.008 24 L6.008 21 3.004 21 3.004 18 3.004 15 6.008 15 6.008 12 3.004 12 3.004 9 0 9 0 12 0 15 0 18 0 21 0 24 0 27 3.004 27 3.004 24 Z" fill="#191b1d" fill-opacity="1" stroke="none"/>
 <path id="Path-1" d="M15.019 21 L15.019 24 18.023 24 21.027 24 21.027 21 18.023 21 Z" fill="#191b1d" fill-opacity="1" stroke="none"/>
 <path id="Path-2" d="M21.027 15 L21.027 12 18.023 12 15.019 12 15.019 15 18.023 15 Z" fill="#191b1d" fill-opacity="1" stroke="none"/>
 <path id="Path-3" d="M21.027 18 L21.027 21 24.031 21 24.031 18 24.031 15 21.027 15 Z" fill="#191b1d" fill-opacity="1" stroke="none"/>
 <path id="Path-4" d="M15.019 15 L12.015 15 12.015 18 12.015 21 15.019 21 15.019 18 Z" fill="#191b1d" fill-opacity="1" stroke="none"/>
 <path id="Path-5" d="M30.039 24 L27.035 24 27.035 27 24.031 27 21.027 27 18.023 27 15.019 27 12.016 27 9.012 27 9.012 24 6.008 24 6.008 27 3.004 27 3.004 30 6.008 30 9.012 30 12.016 30 15.019 30 18.023 30 21.027 30 24.031 30 27.035 30 30.039 30 32.996 30 32.996 27 30.039 27 Z" fill="#191b1d" fill-opacity="1" stroke="none"/>
 <path id="Path-6" d="M32.996 9 L32.996 12 30.039 12 30.039 15 32.996 15 32.996 18 32.996 21 30.039 21 30.039 24 32.996 24 32.996 27 36 27 36 24 36 21 36 18 36 15 36 12 36 9 Z" fill="#191b1d" fill-opacity="1" stroke="none"/>
 <path id="Path-7" d="M6.008 12 L9.012 12 9.012 9 12.016 9 15.019 9 18.023 9 21.027 9 24.031 9 27.035 9 27.035 12 30.039 12 30.039 9 32.996 9 32.996 6 30.039 6 27.035 6 24.031 6 21.027 6 18.023 6 15.019 6 12.016 6 9.012 6 6.008 6 3.004 6 3.004 9 6.008 9 Z" fill="#191b1d" fill-opacity="1" stroke="none"/>
</svg>
