<svg width="29" height="24" viewBox="0 0 29 24" xmlns="http://www.w3.org/2000/svg">
<g clip-path="url(#clip0)">
<path d="M26.1818 6.54545V4.36364V2.18182H24V0H21.8182V2.18182H19.6364V4.36364V6.54545H17.4545H15.2727H13.0909H10.9091H8.72727V4.36364V2.18182H6.54545V0H4.36364V2.18182H2.18182V4.36364V6.54545H0V8.72727V10.9091V13.0909V15.2727V17.4545H2.18182V19.6364V21.8182H4.36364H6.54545V24H8.72727H10.9091H13.0909H15.2727H17.4545H19.6364H21.8182V21.8182H24H26.1818V19.6364V17.4545H28.3636V15.2727V13.0909V10.9091V8.72727V6.54545H26.1818ZM19.6364 19.6364H17.4545H15.2727H13.0909H10.9091H8.72727V17.4545V15.2727H10.9091V17.4545H13.0909V15.2727H15.2727V17.4545H17.4545V15.2727H19.6364V17.4545V19.6364ZM21.8182 13.0909H19.6364V10.9091H21.8182V13.0909ZM8.72727 13.0909H6.54545V10.9091H8.72727V13.0909Z"/>
</g>
<defs>
<clipPath id="clip0">
<rect width="28.3636" height="24" fill="white"/>
</clipPath>
</defs>
</svg>
