<svg width="256" height="256" xmlns="http://www.w3.org/2000/svg" xmlns:xlink="http://www.w3.org/1999/xlink"><defs><linearGradient x1="-7.919%" y1="109.335%" x2="112.341%" y2="-7.007%" id="a"><stop stop-color="#FE8C00" offset="0%"/><stop stop-color="#F83600" offset="100%"/></linearGradient><path id="b" d="M0 0h112v137.846H0z"/></defs><g fill="none" fill-rule="evenodd"><circle fill="url(#a)" cx="128" cy="128" r="128"/><g transform="translate(72 59)"><mask id="c" fill="#fff"><use xlink:href="#b"/></mask><path d="M90.924 107.719c.003-.152.004-.304.004-.455V91.5l10.468-8.487v7.11c0 6.017-2.701 11.674-7.41 15.519-.94.771-1.97 1.47-3.062 2.077m-44.247 7.68l28.511 5.105c.037.006.075.013.114.017-.89 1.103-1.645 1.896-2.37 2.49-4.695 3.844-10.834 5.43-16.842 4.35l-28.623-5.121c-9.77-1.754-16.863-10.207-16.863-20.099V47.9c0-5.99 2.694-11.634 7.391-15.484a20.61 20.61 0 013.084-2.08c-.005.182-.006.364-.006.548v54.398c0 14.79 10.768 27.456 25.604 30.117M65.37 22.696l-28.62-5.123-.148-.026-.027-.004a20.622 20.622 0 012.511-2.444c4.657-3.81 10.973-5.439 16.899-4.359l28.512 5.106c9.792 1.755 16.9 10.116 16.9 19.878v10.372l-10.47 8.487v-1.825c0-14.767-10.747-27.41-25.557-30.062m17.666 48.322a4.757 4.757 0 005.022-.619l22.246-18.056a4.551 4.551 0 001.696-3.54v-13.08c0-14.791-10.767-27.456-25.603-30.114L57.885.504C48.76-1.136 39.434 1.27 32.3 7.11c-3.455 2.823-6.363 6.652-8.41 11.072a31.478 31.478 0 00-12.682 6.244C4.086 30.254 0 38.81 0 47.9v54.505c0 14.767 10.752 27.41 25.568 30.063l28.61 5.122c1.247.226 2.49.256 3.54.256.353 0 .702-.003 1.048-.008l1.041-.007c7.574 0 14.461-2.362 19.922-6.83a30.781 30.781 0 008.417-10.855c7.575-1.807 14.273-6.552 18.866-13.363 3.263-4.84 4.988-10.667 4.988-16.854V71.946c0-2.03-1.164-3.829-3.036-4.695a5.326 5.326 0 00-5.624.694L82.099 85.161c-1.062.86-1.775 2.452-1.775 3.96v18.143c0 1.008-.083 2.042-.245 3.074l-.532.016h-.046c-.837.028-1.628.052-2.404-.088l-28.512-5.106c-9.797-1.753-16.908-10.112-16.908-19.878V30.884c0-1.028.086-2.081.254-3.131 1.002.038 1.985.143 2.924.312l28.606 4.859c9.77 1.754 16.863 10.095 16.863 19.834v14.068c0 1.813 1.039 3.42 2.712 4.192" fill="#FFF" mask="url(#c)"/></g></g></svg>