<svg width="27" height="34" viewBox="0 0 27 34" xmlns="http://www.w3.org/2000/svg">
<path d="M24.9231 31.875H2.0769V34H24.9231V31.875Z" />
<path d="M27 29.75H24.9231V31.875H27V29.75Z" />
<path d="M2.07692 29.75H0V31.875H2.07692V29.75Z" />
<path d="M27 2.125H24.9231V4.25H27V2.125Z" />
<path d="M2.07692 2.125H0V4.25H2.07692V2.125Z" />
<path d="M24.9231 0H2.0769V2.125H24.9231V0Z" />
<path d="M6.23073 23.375H4.15381V25.5H6.23073V23.375Z" />
<path d="M8.30764 21.25H6.23071V23.375H8.30764V21.25Z" />
<path d="M10.3845 19.125H8.30762V21.25H10.3845V19.125Z" />
<path d="M22.8462 23.375H20.7693V25.5H22.8462V23.375Z" />
<path d="M6.23073 8.5H4.15381V10.625H6.23073V8.5Z" />
<path d="M22.8462 8.5H20.7693V10.625H22.8462V8.5Z" />
<path d="M20.7693 21.25H18.6924V23.375H20.7693V21.25Z" />
<path d="M18.6922 19.125H16.6152V21.25H18.6922V19.125Z" />
<path d="M8.30764 10.625H6.23071V12.75H8.30764V10.625Z" />
<path d="M20.7693 10.625H18.6924V12.75H20.7693V10.625Z" />
<path d="M10.3845 12.75H8.30762V14.875H10.3845V12.75Z" />
<path d="M12.4617 14.875H10.3848V19.125H12.4617V14.875Z" />
<path d="M18.6922 12.75H16.6152V14.875H18.6922V12.75Z" />
<path d="M16.6153 14.875H14.5383V19.125H16.6153V14.875Z" />
<path d="M2.0769 4.25V8.5H4.15383V6.375H8.30767V8.5H10.3846V10.625H12.4615V12.75H14.5384V10.625H16.6154V8.5H18.6923V6.375H22.8461V8.5H24.9231V4.25H2.0769Z" />
<path d="M14.5386 21.25H12.4617V23.375H14.5386V21.25Z" />
<path d="M22.8461 25.5V27.625H18.6923V25.5H8.30767V27.625H4.15383V25.5H2.0769V29.75H24.9231V25.5H22.8461Z" />
</svg>
