<svg width="20" height="21" viewBox="0 0 20 21" fill="none" xmlns="http://www.w3.org/2000/svg">
<path d="M10 0.8125C4.64844 0.8125 0.3125 5.1875 0.3125 10.5C0.3125 15.8516 4.64844 20.1875 10 20.1875C15.3125 20.1875 19.6875 15.8516 19.6875 10.5C19.6875 5.1875 15.3125 0.8125 10 0.8125ZM10 18.3125C5.66406 18.3125 2.1875 14.8359 2.1875 10.5C2.1875 6.20312 5.66406 2.6875 10 2.6875C14.2969 2.6875 17.8125 6.20312 17.8125 10.5C17.8125 14.8359 14.2969 18.3125 10 18.3125ZM11.6406 14.25C11.6406 13.3516 10.8984 12.6094 10 12.6094C9.0625 12.6094 8.35938 13.3516 8.35938 14.25C8.35938 15.1875 9.0625 15.8906 10 15.8906C10.8984 15.8906 11.6406 15.1875 11.6406 14.25ZM8.4375 6.00781L8.71094 11.3203C8.71094 11.5547 8.94531 11.75 9.17969 11.75H10.7812C11.0156 11.75 11.25 11.5547 11.25 11.3203L11.5234 6.00781C11.5234 5.73438 11.3281 5.5 11.0547 5.5H8.90625C8.63281 5.5 8.4375 5.73438 8.4375 6.00781Z" fill="#191B1D"/>
</svg>
