<svg width="90" height="36" fill="none" xmlns="http://www.w3.org/2000/svg"><path d="M18.22 22.437v12.605H0V0h8.411v12.65a7.706 7.706 0 00-7.013 7.678c0 4.263 3.46 7.701 7.7 7.701 3.53 0 6.51-2.36 7.426-5.615h1.696v.023zM28.83 28.006v7.036h-8.41V0h8.41v12.65a7.706 7.706 0 00-7.012 7.678c0 4.011 3.094 7.311 7.013 7.678zM49.251 0v12.651c-.229-.023-.458-.023-.71-.023-4.263 0-7.7 3.46-7.7 7.7 0 4.011 3.07 7.312 7.012 7.678v7.036H32.43v-7.036a7.706 7.706 0 007.013-7.677c0-4.263-3.46-7.7-7.7-7.7-.23 0-.482.022-.71.022V.001h18.22zM52.895 21.016c.344 3.69 3.277 6.646 6.967 6.967v7.036h-8.41V0h8.41v12.65c-3.69.345-6.646 3.278-6.967 6.968v1.398zm15.355-1.398c-.344-3.69-3.277-6.646-6.967-6.967V0h8.388v35.042h-8.41v-7.036c3.689-.344 6.645-3.277 6.966-6.967M88.58 20.993c0-4.263-3.461-7.7-7.701-7.7-4.263 0-7.7 3.46-7.7 7.7 0 4.263 3.46 7.7 7.7 7.7 4.263.023 7.7-3.437 7.7-7.7zm1.397 5.615a9.116 9.116 0 01-9.121 9.122 9.116 9.116 0 01-9.122-9.122V9.098c.39-4.72 4.355-8.41 9.145-8.41 4.79 0 8.754 3.712 9.121 8.41v17.51h-.023z" fill="#191B1D"/></svg>