<svg width="100" height="40" viewBox="0 0 474 135" fill="none" xmlns="http://www.w3.org/2000/svg">
<path d="M446.482 87L446.482 87.0627L448.482 87.0627C461.161 87.0627 471.417 97.319 471.417 109.997C471.417 122.676 461.161 132.932 448.482 132.932L378.077 132.932C366.242 131.914 357 121.956 357 109.935C357 97.9138 366.303 87.9582 378.072 87L446.482 87Z" stroke="#191B1D" stroke-width="4"/>
<path d="M383.766 122C390.134 122 393.037 119.69 393.037 115.368C393.037 112.399 391.157 110.386 388.187 109.726V109.627C390.431 108.967 391.85 107.054 391.85 104.777C391.85 100.851 389.177 98.6403 383.535 98.6403H376.541V122H383.766ZM381.16 102.303H383.304C386.241 102.303 387.462 103.292 387.462 105.239C387.462 107.252 386.208 108.308 383.535 108.308H381.16V102.303ZM381.16 111.607H383.799C387.033 111.607 388.484 112.729 388.484 114.939C388.484 117.183 387.066 118.272 383.535 118.272H381.16V111.607ZM395.158 122H409.312L409.774 118.008H399.777V112.036H408.85V108.176H399.777V102.633H409.774L409.312 98.6403H395.158V122ZM420.007 122H424.692V102.831H432.215V98.6403H412.484V102.831H420.007V122ZM454.014 122L444.677 98.6403H439.695L430.258 122H435.57L437.352 117.051H446.887L448.702 122H454.014ZM440.652 107.945C441.179 106.493 441.674 104.909 442.037 103.259H442.169C442.532 104.909 443.027 106.493 443.555 107.945L445.568 113.455H438.672L440.652 107.945Z" fill="#191B1D"/>
<path d="M70.5682 134.864H0L0 8.07589e-05L32.9318 0V48.614C17.9089 49.9318 6.27273 62.4638 6.27273 77.926C6.27273 94.2667 18.6249 106.637 34.8778 106.637C48.4072 106.637 59.2131 98.7256 62.7273 86.2505H70.5682V134.864Z" fill="#191B1D"/>
<path d="M109.773 106.637V134.865H76.8408V0.000488281H109.773V48.4955C94.7497 49.8133 82.1999 62.4642 82.1999 77.9264C82.1999 93.3007 94.7497 105.232 109.773 106.637Z" fill="#191B1D"/>
<path d="M188.182 0.000488281V48.6141C188.182 48.6141 187.268 48.6141 186.302 48.6141C169.961 48.6141 156.783 61.6735 156.783 77.9264C156.783 93.3007 168.366 105.232 183.477 106.637V134.865H123.886V106.637C138.909 105.319 150.545 93.3886 150.545 77.9264C150.545 61.5857 137.787 48.6141 121.534 48.6141C120.655 48.6141 120.06 48.6141 119.182 48.6141V0.000488281H188.182Z" fill="#191B1D"/>
<path fill-rule="evenodd" clip-rule="evenodd" d="M309.672 134.864C329.151 134.864 345 119.237 345 99.923V66.0715V32.2201C343.583 14.2228 328.266 0.000488281 309.76 0.000488281C291.255 0.000488281 275.937 14.135 274.432 32.2201V99.923C274.432 119.237 290.192 134.864 309.672 134.864ZM309.716 106.637C325.739 106.637 338.727 93.6481 338.727 77.6256C338.727 61.603 325.739 48.6142 309.716 48.6142C293.693 48.6142 280.705 61.603 280.705 77.6256C280.705 93.6481 293.693 106.637 309.716 106.637Z" fill="#191B1D"/>
<path d="M228.955 106.637V134.865H196.023V0.000488281H228.955V48.4955C213.932 49.8133 201.382 62.4642 201.382 77.9264C201.382 93.3007 213.932 105.232 228.955 106.637Z" fill="#191B1D"/>
<path d="M235.227 106.637V134.865H268.159V0.000488281H235.227V48.4955C250.25 49.8133 262.8 62.4642 262.8 77.9264C262.8 93.3007 250.25 105.232 235.227 106.637Z" fill="#191B1D"/>
</svg>
